Coordinates
version=1
nRows=8
nColumns=63
inDegrees=yes

Units are S.I. units (second, meters, Newtons, ...)
If the header above contains a line with 'inDegrees', this indicates whether rotational values are in degrees (yes) or radians (no).

endheader
time	pelvis_tilt	pelvis_list	pelvis_rotation	pelvis_tx	pelvis_ty	pelvis_tz	hip_flexion_r	hip_adduction_r	hip_rotation_r	knee_angle_r	knee_angle_r_beta	ankle_angle_r	subtalar_angle_r	mtp_angle_r	hip_flexion_l	hip_adduction_l	hip_rotation_l	knee_angle_l	knee_angle_l_beta	ankle_angle_l	subtalar_angle_l	mtp_angle_l	L5_S1_Flex_Ext	L5_S1_Lat_Bending	L5_S1_axial_rotation	L4_L5_Flex_Ext	L4_L5_Lat_Bending	L4_L5_axial_rotation	L3_L4_Flex_Ext	L3_L4_Lat_Bending	L3_L4_axial_rotation	L2_L3_Flex_Ext	L2_L3_Lat_Bending	L2_L3_axial_rotation	L1_L2_Flex_Ext	L1_L2_Lat_Bending	L1_L2_axial_rotation	L1_T12_Flex_Ext	L1_T12_Lat_Bending	L1_T12_axial_rotation	Abs_r3	Abs_r2	Abs_r1	Abs_t1	Abs_t2	neck_flexion	neck_bending	neck_rotation	arm_flex_r	arm_add_r	arm_rot_r	elbow_flex_r	pro_sup_r	wrist_flex_r	wrist_dev_r	arm_flex_l	arm_add_l	arm_rot_l	elbow_flex_l	pro_sup_l	wrist_flex_l	wrist_dev_l
      2.50000000	     -0.49693968	     -7.86383749	     86.53319892	      0.24959583	      0.97992256	      0.45022939	      9.88017457	      1.04703821	      6.54646531	      4.43126867	      0.07734023	     22.39267861	     -8.91781761	      0.00000000	      7.72287949	     -0.75140581	     -8.83638226	      3.33510998	      0.05820865	     24.07210409	      5.00305097	      0.00000000	      0.40722670	     -0.07908160	      1.72691524	      0.75626070	     -0.10517853	      1.83484745	      0.66903274	     -0.19227901	      1.83484745	      0.46541939	     -0.19227901	      1.51105084	      0.37815071	     -0.16126321	      1.40311864	      0.23268933	     -0.12249740	      1.29518643	      2.90877956	     -0.89458692	      9.60458451	      0.00000000	      0.00000000	     28.30897917	     -3.28825131	    -12.93438412	     16.19174267	    -10.64835083	     63.33138473	     49.55320887	     38.53305884	     -4.63839977	     18.64725034	     20.16388232	     -1.77163946	     59.26082292	     55.55116812	     49.63060040	    -29.02334707	     27.01429667
      2.51666667	     -0.44033762	     -7.83703032	     86.88891153	      0.24885903	      0.97967794	      0.45086077	      9.89256635	      1.00824275	      5.94371581	      4.45359569	      0.07772991	     22.69125902	     -8.41578729	      0.00000000	      7.83175435	     -0.74176869	     -8.36164446	      3.37925868	      0.05897919	     24.09757929	      4.86372772	      0.00000000	      0.40664304	     -0.09205430	      1.64444170	      0.75517680	     -0.12243222	      1.74721930	      0.66807386	     -0.22382083	      1.74721930	      0.46475233	     -0.22382083	      1.43888648	      0.37760873	     -0.18771713	      1.33610888	      0.23235583	     -0.14259211	      1.23333127	      2.90461059	     -1.04133667	      9.14589138	      0.00000000	      0.00000000	     28.31942683	     -3.30575914	    -13.25912914	     16.32620679	    -11.11015039	     62.41671310	     50.42340303	     42.39351436	     -3.14438915	     16.83132400	     20.49205075	     -2.26714804	     61.33791782	     57.58575609	     37.64778467	    -38.57006876	     20.11135708
      2.53333333	     -0.37093443	     -7.87274445	     87.24503453	      0.24794077	      0.97944122	      0.45127909	      9.90558122	      0.97368909	      5.49576020	      4.37654846	      0.07638518	     22.72728851	     -8.13521076	      0.00000000	      7.95982954	     -0.72569763	     -7.98609177	      3.33244287	      0.05816210	     24.19940036	      4.78757136	      0.00000000	      0.41669937	     -0.09975086	      1.53003225	      0.77385240	     -0.13266865	      1.62565926	      0.68459540	     -0.24253425	      1.62565926	      0.47624571	     -0.24253425	      1.33877822	      0.38694704	     -0.20341196	      1.24315120	      0.23810202	     -0.15451408	      1.14752418	      2.97644193	     -1.12840170	      8.50958034	      0.00000000	      0.00000000	     28.32555883	     -3.11486331	    -13.32078207	     16.93725105	    -11.64767969	     63.04410414	     51.27678572	     45.67326363	     -2.71466320	     14.02715278	     19.90576880	     -2.53518269	     60.58918504	     59.06167331	     35.96162177	    -42.94899019	     17.94413461
      2.55000000	     -0.38669658	     -7.90528594	     87.54552139	      0.24718308	      0.97913718	      0.45151855	      9.92316704	      0.84081107	      4.56609229	      4.33048787	      0.07558127	     22.98084951	     -7.05991474	      0.00000000	      8.06601497	     -0.61630754	     -7.19613203	      3.25323278	      0.05677962	     24.27733497	      4.09216522	      0.00000000	      0.42451684	     -0.11737726	      1.49295379	      0.78837022	     -0.15611175	      1.58626340	      0.69743872	     -0.28539106	      1.58626340	      0.48518030	     -0.28539106	      1.30633456	      0.39420634	     -0.23935570	      1.21302495	      0.24256892	     -0.18181737	      1.11971534	      3.03228133	     -1.32779499	      8.30336108	      0.00000000	      0.00000000	     28.32826108	     -3.19131999	    -13.69963040	     17.02184865	    -12.14216436	     62.42128631	     52.28539751	     50.36012738	     -2.49447211	     12.49203297	     19.93218892	     -2.81612288	     61.67427869	     60.32838833	     28.60307963	    -47.64679528	     10.87992019
      2.56666667	     -0.41069865	     -7.93163970	     87.81436441	      0.24654496	      0.97889888	      0.45174107	      9.89175719	      0.73449223	      4.32422475	      4.19275453	      0.07317737	     22.88629102	     -6.95235172	      0.00000000	      8.17623502	     -0.52866711	     -6.91751860	      3.20653248	      0.05596455	     24.44792766	      4.07628101	      0.00000000	      0.43067772	     -0.13093232	      1.41318497	      0.79981159	     -0.17413999	      1.50150903	      0.70756042	     -0.31834885	      1.50150903	      0.49222156	     -0.31834885	      1.23653685	      0.39992733	     -0.26699719	      1.14821279	      0.24608925	     -0.20281417	      1.05988873	      3.07628788	     -1.48113262	      7.85971084	      0.00000000	      0.00000000	     28.33056019	     -3.08560328	    -13.72501754	     17.79499986	    -12.53008897	     63.64797309	     52.87393396	     52.42321030	     -2.73561427	     10.71916816	     19.32769706	     -2.94915288	     60.77281194	     61.16372257	     28.43582932	    -50.28407396	      8.67969518
      2.58333333	     -0.48140478	     -7.94909327	     88.12976741	      0.24606502	      0.97868797	      0.45197170	      9.85114724	      0.58783025	      4.02711852	      4.04830122	      0.07065619	     22.72232444	     -6.94070297	      0.00000000	      8.28043775	     -0.38963889	     -6.23089342	      3.16205902	      0.05518834	     24.50954415	      3.58057853	      0.00000000	      0.43754934	     -0.14641474	      1.34601737	      0.81257288	     -0.19473160	      1.43014346	      0.71884981	     -0.35599279	      1.43014346	      0.50007514	     -0.35599279	      1.17776520	      0.40630831	     -0.29856893	      1.09363911	      0.25001569	     -0.22679643	      1.00951303	      3.12537116	     -1.65627279	      7.48614481	      0.00000000	      0.00000000	     28.33008595	     -2.88718196	    -13.38104412	     18.09550324	    -12.73801481	     64.01929577	     53.40733737	     54.45875475	     -3.29710781	     10.33402651	     19.56430519	     -3.21504001	     61.78121129	     61.78983741	     22.13342715	    -52.57896514	      2.36709509
      2.60000000	     -0.55630439	     -7.99561443	     88.18929996	      0.24586685	      0.97858175	      0.45257217	     10.05816022	      0.40227233	      1.99301236	      4.25870771	      0.07432847	     23.23009633	     -4.08921703	      0.00000000	      8.48378680	     -0.35970657	     -7.83487237	      3.30057939	      0.05760598	     24.97011698	      5.81421414	      0.00000000	      0.44113449	     -0.15964303	      1.29871963	      0.81923086	     -0.21232523	      1.37988960	      0.72473985	     -0.38815607	      1.37988960	      0.50417261	     -0.38815607	      1.13637967	      0.40963749	     -0.32554407	      1.05520970	      0.25206425	     -0.24728706	      0.97403972	      3.15097955	     -1.80591392	      7.22308895	      0.00000000	      0.00000000	     28.33111846	     -2.98779260	    -13.41112800	     18.36914969	    -12.80422910	     64.65448039	     53.62141989	     53.74977701	     -3.75554131	     10.79580006	     19.33860110	     -3.11384142	     60.74933970	     61.67157160	     24.35624663	    -53.34859236	      4.28119065
      2.61666667	     -0.56330997	     -8.05753771	     88.70507078	      0.24536505	      0.97848189	      0.45308860	      9.99942372	      0.39669171	      3.72084494	      3.93819209	      0.06873442	     22.13469300	     -7.43760987	      0.00000000	      8.73413116	     -0.25425359	     -6.25596184	      3.44293858	      0.06009061	     24.77182084	      4.24299603	      0.00000000	      0.44542184	     -0.16730269	      1.24616066	      0.82719291	     -0.22251258	      1.32404571	      0.73178355	     -0.40677977	      1.32404571	      0.50907263	     -0.40677977	      1.09039058	      0.41361872	     -0.34116365	      1.01250554	      0.25451404	     -0.25915187	      0.93462050	      3.18160369	     -1.89256152	      6.93077176	      0.00000000	      0.00000000	     28.32439329	     -2.97734486	    -13.22795790	     17.42972977	    -12.76933402	     62.79260145	     53.86944914	     55.50773320	     -3.85095992	     13.17689077	     20.27661229	     -2.95459005	     62.34029905	     60.90725683	     22.60348174	    -52.95625263	      3.25574624
